<svg id="visual" viewBox="0 0 900 600" width="900" height="600"
     xmlns="http://www.w3.org/2000/svg" version="1.1">
    <path d="M0 157L113 157L113 151L225 151L225 157L338 157L338 151L450 151L450 133L563 133L563 145L675 145L675 157L788 157L788 139L900 139L900 151L900 0L900 0L788 0L788 0L675 0L675 0L563 0L563 0L450 0L450 0L338 0L338 0L225 0L225 0L113 0L113 0L0 0Z"
          fill="#0066ff"></path>
    <path d="M0 229L113 229L113 211L225 211L225 229L338 229L338 223L450 223L450 205L563 205L563 205L675 205L675 223L788 223L788 199L900 199L900 211L900 149L900 137L788 137L788 155L675 155L675 143L563 143L563 131L450 131L450 149L338 149L338 155L225 155L225 149L113 149L113 155L0 155Z"
          fill="#0072ff"></path>
    <path d="M0 307L113 307L113 289L225 289L225 307L338 307L338 307L450 307L450 295L563 295L563 295L675 295L675 301L788 301L788 289L900 289L900 301L900 209L900 197L788 197L788 221L675 221L675 203L563 203L563 203L450 203L450 221L338 221L338 227L225 227L225 209L113 209L113 227L0 227Z"
          fill="#007dff"></path>
    <path d="M0 343L113 343L113 325L225 325L225 343L338 343L338 343L450 343L450 331L563 331L563 331L675 331L675 337L788 337L788 325L900 325L900 337L900 299L900 287L788 287L788 299L675 299L675 293L563 293L563 293L450 293L450 305L338 305L338 305L225 305L225 287L113 287L113 305L0 305Z"
          fill="#0087ff"></path>
    <path d="M0 385L113 385L113 367L225 367L225 385L338 385L338 385L450 385L450 373L563 373L563 373L675 373L675 379L788 379L788 367L900 367L900 379L900 335L900 323L788 323L788 335L675 335L675 329L563 329L563 329L450 329L450 341L338 341L338 341L225 341L225 323L113 323L113 341L0 341Z"
          fill="#0d91fe"></path>
    <path d="M0 505L113 505L113 499L225 499L225 505L338 505L338 505L450 505L450 505L563 505L563 499L675 499L675 505L788 505L788 505L900 505L900 505L900 377L900 365L788 365L788 377L675 377L675 371L563 371L563 371L450 371L450 383L338 383L338 383L225 383L225 365L113 365L113 383L0 383Z"
          fill="#269afd"></path>
    <path d="M0 547L113 547L113 547L225 547L225 547L338 547L338 553L450 553L450 553L563 553L563 547L675 547L675 547L788 547L788 547L900 547L900 547L900 503L900 503L788 503L788 503L675 503L675 497L563 497L563 503L450 503L450 503L338 503L338 503L225 503L225 497L113 497L113 503L0 503Z"
          fill="#3ba3fa"></path>
    <path d="M0 601L113 601L113 601L225 601L225 601L338 601L338 601L450 601L450 601L563 601L563 601L675 601L675 601L788 601L788 601L900 601L900 601L900 545L900 545L788 545L788 545L675 545L675 545L563 545L563 551L450 551L450 551L338 551L338 545L225 545L225 545L113 545L113 545L0 545Z"
          fill="#4facf7"></path>
</svg>
